<svg width="390" height="844" viewBox="0 0 390 844" fill="none" xmlns="http://www.w3.org/2000/svg">
  <defs>
    <linearGradient id="bg3" x1="195" y1="0" x2="195" y2="844" gradientUnits="userSpaceOnUse">
      <stop stop-color="#FBF3DE"/>
      <stop offset="1" stop-color="#EED39A"/>
    </linearGradient>
    <pattern id="grain3" width="22" height="22" patternUnits="userSpaceOnUse" patternTransform="rotate(45)">
      <path d="M0 0H1V22H0Z" fill="#9B6A33" fill-opacity="0.08"/>
    </pattern>
  </defs>
  <rect width="390" height="844" fill="url(#bg3)"/>
  <rect width="390" height="844" fill="url(#grain3)"/>
  <rect x="0.5" y="0.5" width="389" height="843" stroke="#CDA66E" stroke-opacity="0.45"/>
  <line x1="0" y1="80" x2="390" y2="80" stroke="#CDA66E" stroke-opacity="0.6"/>
  <line x1="0" y1="764" x2="390" y2="764" stroke="#CDA66E" stroke-opacity="0.6"/>
  <text x="195" y="36" text-anchor="middle" fill="#8A6A4F" font-size="11" letter-spacing="3">DUNHUANG ECHO</text>
  <text x="28" y="64" fill="#4A2D1F" font-size="24" font-weight="700">采声</text>
  <rect x="240" y="22" rx="16" ry="16" width="100" height="30" fill="#FFF7EB" stroke="#D7B37A"/>
  <text x="290" y="42" text-anchor="middle" fill="#7D4B2D" font-size="12">哼唱采集 / 预设填充</text>

  <rect x="124" y="96" width="242" height="40" rx="20" fill="#FFF7EB" stroke="#D7B37A"/>
  <circle cx="138" cy="116" r="10" fill="#8B4D24"/>
  <text x="138" y="120" text-anchor="middle" fill="#FFF7EA" font-size="10">1</text>
  <text x="163" y="121" fill="#5F3E2D" font-size="12">知悉</text>
  <line x1="193" y1="116" x2="210" y2="116" stroke="#D7B37A"/>
  <circle cx="220" cy="116" r="10" fill="#8B4D24"/>
  <text x="220" y="120" text-anchor="middle" fill="#FFF7EA" font-size="10">2</text>
  <text x="236" y="121" fill="#5F3E2D" font-size="12">取样</text>
  <line x1="258" y1="116" x2="276" y2="116" stroke="#D7B37A"/>
  <circle cx="286" cy="116" r="10" fill="#8B4D24"/>
  <text x="286" y="120" text-anchor="middle" fill="#FFF7EA" font-size="10">3</text>
  <text x="301" y="121" fill="#5F3E2D" font-size="12" font-weight="600">采声</text>
  <line x1="322" y1="116" x2="340" y2="116" stroke="#D7B37A"/>
  <circle cx="350" cy="116" r="10" fill="white" stroke="#D7B37A"/>
  <text x="350" y="120" text-anchor="middle" fill="#8F6A4D" font-size="10">4</text>
  <text x="366" y="121" fill="#8F6A4D" font-size="12">织谱</text>

  <rect x="124" y="158" width="84" height="28" rx="14" fill="#7A4C2B"/>
  <text x="166" y="177" text-anchor="middle" fill="#FFF7EA" font-size="11">哼唱采集</text>
  <text x="124" y="230" fill="#4A2D1F" font-size="28" font-weight="700">准备收下你的旋律</text>
  <text x="124" y="262" fill="#6F4A35" font-size="14">先听 4 拍，再唱 4 小节。</text>

  <rect x="124" y="296" width="242" height="100" rx="10" fill="#FFF8EE" stroke="#D8BD8D"/>
  <text x="143" y="324" fill="#7C583F" font-size="13">预备拍</text>
  <text x="342" y="324" text-anchor="end" fill="#4A2D1F" font-size="13" font-weight="600">2</text>
  <g>
    <rect x="146" y="342" width="34" height="10" rx="5" fill="#8B4D24"/>
    <rect x="184" y="342" width="34" height="10" rx="5" fill="#8B4D24"/>
    <rect x="222" y="342" width="34" height="10" rx="5" fill="#D9C09B"/>
    <rect x="260" y="342" width="34" height="10" rx="5" fill="#D9C09B"/>
  </g>
  <text x="124" y="388" fill="#7B5A46" font-size="12">四拍结束后开始录制 4 小节。</text>

  <rect x="124" y="418" width="242" height="138" rx="10" fill="#FFF8EE" stroke="#D8BD8D"/>
  <text x="143" y="446" fill="#7C583F" font-size="13">录制进度</text>
  <text x="342" y="446" text-anchor="end" fill="#4A2D1F" font-size="13" font-weight="600">2/4 小节</text>
  <g>
    <rect x="138" y="470" width="48" height="64" rx="6" fill="#F7E2B8" stroke="#8B4D24"/>
    <rect x="192" y="470" width="48" height="64" rx="6" fill="#FFFAF3" stroke="#DBC39C"/>
    <rect x="246" y="470" width="48" height="64" rx="6" fill="#FFFAF3" stroke="#DBC39C"/>
    <rect x="300" y="470" width="48" height="64" rx="6" fill="#FFFAF3" stroke="#DBC39C"/>
    <g fill="#7A4C2B">
      <rect x="150" y="490" width="4" height="36" rx="2"/>
      <rect x="158" y="480" width="4" height="46" rx="2"/>
      <rect x="166" y="494" width="4" height="32" rx="2"/>
      <rect x="174" y="476" width="4" height="50" rx="2"/>
    </g>
    <g fill="#7A4C2B">
      <rect x="204" y="500" width="4" height="26" rx="2"/>
      <rect x="212" y="484" width="4" height="42" rx="2"/>
      <rect x="220" y="492" width="4" height="34" rx="2"/>
      <rect x="228" y="478" width="4" height="48" rx="2"/>
    </g>
  </g>

  <rect x="19" y="626" width="164" height="50" rx="8" fill="#FFF7EB" stroke="#CDA66E"/>
  <text x="101" y="657" text-anchor="middle" fill="#6D3F27" font-size="14" font-weight="600">重来</text>
  <rect x="197" y="626" width="174" height="50" rx="8" fill="#4A2D1F"/>
  <text x="284" y="657" text-anchor="middle" fill="#FFF8EF" font-size="14" font-weight="600">开始</text>
</svg>
