<svg width="390" height="844" viewBox="0 0 390 844" fill="none" xmlns="http://www.w3.org/2000/svg">
  <defs>
    <linearGradient id="bg5" x1="195" y1="0" x2="195" y2="844" gradientUnits="userSpaceOnUse">
      <stop stop-color="#FBF3DE"/>
      <stop offset="1" stop-color="#EED39A"/>
    </linearGradient>
    <pattern id="grain5" width="22" height="22" patternUnits="userSpaceOnUse" patternTransform="rotate(45)">
      <path d="M0 0H1V22H0Z" fill="#9B6A33" fill-opacity="0.08"/>
    </pattern>
  </defs>
  <rect width="390" height="844" fill="url(#bg5)"/>
  <rect width="390" height="844" fill="url(#grain5)"/>
  <rect x="0.5" y="0.5" width="389" height="843" stroke="#CDA66E" stroke-opacity="0.45"/>
  <line x1="0" y1="80" x2="390" y2="80" stroke="#CDA66E" stroke-opacity="0.6"/>
  <line x1="0" y1="764" x2="390" y2="764" stroke="#CDA66E" stroke-opacity="0.6"/>
  <text x="195" y="36" text-anchor="middle" fill="#8A6A4F" font-size="11" letter-spacing="3">DUNHUANG ECHO</text>
  <text x="28" y="64" fill="#4A2D1F" font-size="24" font-weight="700">回声</text>
  <rect x="256" y="22" rx="16" ry="16" width="80" height="30" fill="#FFF7EB" stroke="#D7B37A"/>
  <text x="296" y="42" text-anchor="middle" fill="#7D4B2D" font-size="12">给一点反馈</text>

  <rect x="124" y="96" width="242" height="40" rx="20" fill="#FFF7EB" stroke="#D7B37A"/>
  <circle cx="138" cy="116" r="10" fill="#8B4D24"/>
  <text x="138" y="120" text-anchor="middle" fill="#FFF7EA" font-size="10">1</text>
  <text x="163" y="121" fill="#5F3E2D" font-size="12">知悉</text>
  <line x1="193" y1="116" x2="210" y2="116" stroke="#D7B37A"/>
  <circle cx="220" cy="116" r="10" fill="#8B4D24"/>
  <text x="220" y="120" text-anchor="middle" fill="#FFF7EA" font-size="10">2</text>
  <text x="236" y="121" fill="#5F3E2D" font-size="12">取样</text>
  <line x1="258" y1="116" x2="276" y2="116" stroke="#D7B37A"/>
  <circle cx="286" cy="116" r="10" fill="#8B4D24"/>
  <text x="286" y="120" text-anchor="middle" fill="#FFF7EA" font-size="10">3</text>
  <text x="301" y="121" fill="#5F3E2D" font-size="12">采声</text>
  <line x1="322" y1="116" x2="340" y2="116" stroke="#D7B37A"/>
  <circle cx="350" cy="116" r="10" fill="#8B4D24"/>
  <text x="350" y="120" text-anchor="middle" fill="#FFF7EA" font-size="10">4</text>
  <text x="366" y="121" fill="#5F3E2D" font-size="12" font-weight="600">织谱</text>

  <rect x="124" y="158" width="58" height="28" rx="14" fill="#7A4C2B"/>
  <text x="153" y="177" text-anchor="middle" fill="#FFF7EA" font-size="11">问卷</text>
  <text x="124" y="230" fill="#4A2D1F" font-size="28" font-weight="700">给一点回声</text>
  <text x="124" y="262" fill="#6F4A35" font-size="14">这部分会很快，主要想知道你刚刚的感受。</text>

  <rect x="124" y="296" width="242" height="92" rx="10" fill="#FFF8EE" stroke="#D8BD8D"/>
  <text x="138" y="324" fill="#5F3E2D" font-size="13" font-weight="600">像敦煌</text>
  <text x="342" y="324" text-anchor="end" fill="#8C6A52" font-size="12">4/5</text>
  <g>
    <rect x="138" y="336" width="38" height="30" rx="6" fill="#8B4D24"/>
    <rect x="182" y="336" width="38" height="30" rx="6" fill="#FFF8EE" stroke="#D8BD8D"/>
    <rect x="226" y="336" width="38" height="30" rx="6" fill="#FFF8EE" stroke="#D8BD8D"/>
    <rect x="270" y="336" width="38" height="30" rx="6" fill="#FFF8EE" stroke="#D8BD8D"/>
    <rect x="314" y="336" width="38" height="30" rx="6" fill="#FFF8EE" stroke="#D8BD8D"/>
    <text x="157" y="356" text-anchor="middle" fill="#FFF7EA" font-size="12">1</text>
    <text x="201" y="356" text-anchor="middle" fill="#6A4030" font-size="12">2</text>
    <text x="245" y="356" text-anchor="middle" fill="#6A4030" font-size="12">3</text>
    <text x="289" y="356" text-anchor="middle" fill="#6A4030" font-size="12">4</text>
    <text x="333" y="356" text-anchor="middle" fill="#6A4030" font-size="12">5</text>
  </g>

  <rect x="124" y="402" width="242" height="92" rx="10" fill="#FFF8EE" stroke="#D8BD8D"/>
  <text x="138" y="430" fill="#5F3E2D" font-size="13" font-weight="600">轨道清楚</text>
  <text x="342" y="430" text-anchor="end" fill="#8C6A52" font-size="12">4/5</text>
  <g>
    <rect x="138" y="442" width="38" height="30" rx="6" fill="#FFF8EE" stroke="#D8BD8D"/>
    <rect x="182" y="442" width="38" height="30" rx="6" fill="#8B4D24"/>
    <rect x="226" y="442" width="38" height="30" rx="6" fill="#FFF8EE" stroke="#D8BD8D"/>
    <rect x="270" y="442" width="38" height="30" rx="6" fill="#FFF8EE" stroke="#D8BD8D"/>
    <rect x="314" y="442" width="38" height="30" rx="6" fill="#FFF8EE" stroke="#D8BD8D"/>
    <text x="157" y="462" text-anchor="middle" fill="#6A4030" font-size="12">1</text>
    <text x="201" y="462" text-anchor="middle" fill="#FFF7EA" font-size="12">2</text>
    <text x="245" y="462" text-anchor="middle" fill="#6A4030" font-size="12">3</text>
    <text x="289" y="462" text-anchor="middle" fill="#6A4030" font-size="12">4</text>
    <text x="333" y="462" text-anchor="middle" fill="#6A4030" font-size="12">5</text>
  </g>

  <rect x="124" y="508" width="242" height="92" rx="10" fill="#FFF8EE" stroke="#D8BD8D"/>
  <text x="138" y="536" fill="#5F3E2D" font-size="13" font-weight="600">输入顺手</text>
  <text x="342" y="536" text-anchor="end" fill="#8C6A52" font-size="12">4/5</text>
  <g>
    <rect x="138" y="548" width="38" height="30" rx="6" fill="#FFF8EE" stroke="#D8BD8D"/>
    <rect x="182" y="548" width="38" height="30" rx="6" fill="#FFF8EE" stroke="#D8BD8D"/>
    <rect x="226" y="548" width="38" height="30" rx="6" fill="#8B4D24"/>
    <rect x="270" y="548" width="38" height="30" rx="6" fill="#FFF8EE" stroke="#D8BD8D"/>
    <rect x="314" y="548" width="38" height="30" rx="6" fill="#FFF8EE" stroke="#D8BD8D"/>
    <text x="157" y="568" text-anchor="middle" fill="#6A4030" font-size="12">1</text>
    <text x="201" y="568" text-anchor="middle" fill="#6A4030" font-size="12">2</text>
    <text x="245" y="568" text-anchor="middle" fill="#FFF7EA" font-size="12">3</text>
    <text x="289" y="568" text-anchor="middle" fill="#6A4030" font-size="12">4</text>
    <text x="333" y="568" text-anchor="middle" fill="#6A4030" font-size="12">5</text>
  </g>

  <rect x="124" y="614" width="242" height="92" rx="10" fill="#FFF8EE" stroke="#D8BD8D"/>
  <text x="138" y="642" fill="#5F3E2D" font-size="13" font-weight="600">愿意再来</text>
  <text x="342" y="642" text-anchor="end" fill="#8C6A52" font-size="12">4/5</text>
  <g>
    <rect x="138" y="654" width="38" height="30" rx="6" fill="#FFF8EE" stroke="#D8BD8D"/>
    <rect x="182" y="654" width="38" height="30" rx="6" fill="#FFF8EE" stroke="#D8BD8D"/>
    <rect x="226" y="654" width="38" height="30" rx="6" fill="#FFF8EE" stroke="#D8BD8D"/>
    <rect x="270" y="654" width="38" height="30" rx="6" fill="#8B4D24"/>
    <rect x="314" y="654" width="38" height="30" rx="6" fill="#FFF8EE" stroke="#D8BD8D"/>
    <text x="157" y="674" text-anchor="middle" fill="#6A4030" font-size="12">1</text>
    <text x="201" y="674" text-anchor="middle" fill="#6A4030" font-size="12">2</text>
    <text x="245" y="674" text-anchor="middle" fill="#6A4030" font-size="12">3</text>
    <text x="289" y="674" text-anchor="middle" fill="#FFF7EA" font-size="12">4</text>
    <text x="333" y="674" text-anchor="middle" fill="#6A4030" font-size="12">5</text>
  </g>

  <rect x="124" y="724" width="242" height="92" rx="10" fill="#FFF8EE" stroke="#D8BD8D"/>
  <text x="138" y="750" fill="#5F3E2D" font-size="13" font-weight="600">补一句话</text>
  <rect x="138" y="762" width="214" height="38" rx="6" fill="#FFFDF8" stroke="#D8BD8D"/>
  <text x="150" y="786" fill="#B49373" font-size="11">比如：节拍很清楚，但我更想先听到主旋律。</text>
</svg>
